<!-- icon666.com - MILLIONS vector ICONS FREE --><svg viewBox="0 0 54 58" xmlns="http://www.w3.org/2000/svg"><g id="Page-1" fill="none" fill-rule="evenodd"><g id="046---Floating-Bot" fill-rule="nonzero"><path id="Shape" d="m19 50h16v4c0 2.209139-1.790861 4-4 4h-8c-2.209139 0-4-1.790861-4-4z" fill="#94a4a4"></path><path id="Shape" d="m11 51c1.6568542 0 3-1.3431458 3-3l1-14h-1c-3.3137085 0-6 2.6862915-6 6v8c0 1.6568542 1.34314575 3 3 3z" fill="#bcc2c6"></path><path id="Shape" d="m43 51c-1.6568542 0-3-1.3431458-3-3l-1-14h1c3.3137085 0 6 2.6862915 6 6v8c0 1.6568542-1.3431458 3-3 3z" fill="#bcc2c6"></path><path id="Shape" d="m8 18h-5c-.55228475 0-1-.4477153-1-1s.44771525-1 1-1h5c.55228475 0 1 .4477153 1 1s-.44771525 1-1 1z" fill="#7f8b8c"></path><path id="Shape" d="m51.031 18h-5.062c-.5522847 0-1-.4477153-1-1s.4477153-1 1-1h5.062c.5522847 0 1 .4477153 1 1s-.4477153 1-1 1z" fill="#7f8b8c"></path><path id="Shape" d="m22 0h10c5.5228475 0 10 4.4771525 10 10v14c0 3.3137085-2.6862915 6-6 6h-18c-3.3137085 0-6-2.6862915-6-6v-14c0-5.5228475 4.4771525-10 10-10z" fill="#ff5364"></path><rect id="Rectangle-path" fill="#65dcb8" height="14" rx="4" width="30" x="12" y="10" style="fill: rgb(107, 107, 107);"></rect><circle id="Oval" cx="19" cy="17" fill="#149f84" r="3"></circle><circle id="Oval" cx="2" cy="17" fill="#f2d45b" r="2"></circle><circle id="Oval" cx="35" cy="17" fill="#149f84" r="3"></circle><path id="Shape" d="m12 11v12c-2.76142375 0-5-2.2385763-5-5v-2c0-2.7614237 2.23857625-5 5-5z" fill="#bcc2c6"></path><circle id="Oval" cx="52" cy="17" fill="#f2d45b" r="2"></circle><path id="Shape" d="m47 11v12c-2.7614237 0-5-2.2385763-5-5v-2c0-2.7614237 2.2385763-5 5-5z" fill="#bcc2c6" transform="matrix(-1 0 0 -1 89 34)"></path><path id="Shape" d="m40 35v12c0 2.7614237-2.2385763 5-5 5h-16c-2.7614237 0-5-2.2385763-5-5v-12c-.0016435-.0369499.0017203-.0739522.01-.11.0544552-2.7167705 2.2726839-4.8905457 4.99-4.89h16c2.7139425-.0017244 4.9312383 2.1666932 4.99 4.88.0082848.0394323.0116438.0797403.01.12z" fill="#de4d60" style="fill: rgb(212, 17, 43);"></path><path id="Shape" d="m40 35v2.09c-1.9368022.7170835-3.9502645 1.207026-6 1.46v13.45h-2v-13.22c-1.47.13-3.12.22-5 .22s-3.53-.09-5-.22v13.22h-2v-13.45c-2.0497355-.252974-4.0631978-.7429165-6-1.46v-2.09c-.0016435-.0369499.0017203-.0739522.01-.11l.44.22c.03.01 3.96 1.89 12.55 1.89s12.52-1.88 12.56-1.9l.43-.22c.0082848.0394323.0116438.0797403.01.12z" fill="#802d40"></path><path id="Shape" d="m38 25h-22c-2.7600532-.0033061-4.9966939-2.2399468-5-5v-6c.0033061-2.7600532 2.2399468-4.99669388 5-5h22c2.7600532.00330612 4.9966939 2.2399468 5 5v6c-.0033061 2.7600532-2.2399468 4.9966939-5 5zm-22-14c-1.6568542 0-3 1.3431458-3 3v6c0 1.6568542 1.3431458 3 3 3h22c1.6568542 0 3-1.3431458 3-3v-6c0-1.6568542-1.3431458-3-3-3z" fill="#ebeff0"></path></g></g></svg>