<!-- icon666.com - MILLIONS vector ICONS FREE --><svg viewBox="0 0 56 60" xmlns="http://www.w3.org/2000/svg"><g id="Page-1" fill="none" fill-rule="evenodd"><g id="046---Floating-Bot" fill-rule="nonzero" transform="translate(-1)"><g id="Icons" transform="translate(2 1)"><path id="Shape" d="m22 0h10c5.5228475 0 10 4.4771525 10 10v14c0 3.3137085-2.6862915 6-6 6h-18c-3.3137085 0-6-2.6862915-6-6v-14c0-5.5228475 4.4771525-10 10-10z" fill="#ffdb00"></path><path id="Shape" d="m32 0h-3c5.5228475 0 10 4.4771525 10 10v14c0 3.3137085-2.6862915 6-6 6h3c3.3137085 0 6-2.6862915 6-6v-14c0-5.5228475-4.4771525-10-10-10z" fill="#fdc008"></path><rect id="Rectangle-path" fill="#02a8f3" height="14" rx="4" width="30" x="12" y="10"></rect><path id="Shape" d="m38 10h-3c2.209139 0 4 1.790861 4 4v6c0 2.209139-1.790861 4-4 4h3c2.209139 0 4-1.790861 4-4v-6c0-2.209139-1.790861-4-4-4z" fill="#0377bb"></path><circle id="Oval" cx="19" cy="17" fill="#f4f4f4" r="3"></circle><circle id="Oval" cx="2" cy="17" fill="#9d9d9d" r="2"></circle><circle id="Oval" cx="35" cy="17" fill="#f4f4f4" r="3"></circle><path id="Shape" d="m12 11v12c-2.76142375 0-5-2.2385763-5-5v-2c0-2.7614237 2.23857625-5 5-5z" fill="#7f8d93"></path><circle id="Oval" cx="52" cy="17" fill="#9d9d9d" r="2"></circle><path id="Shape" d="m47 11v12c-2.7614237 0-5-2.2385763-5-5v-2c0-2.7614237 2.2385763-5 5-5z" fill="#7f8d93" transform="matrix(-1 0 0 -1 89 34)"></path><rect id="Rectangle-path" fill="#ff9701" height="22" rx="5" width="26" x="14" y="30"></rect><path id="Shape" d="m35 30h-3c2.7614237 0 5 2.2385763 5 5v12c0 2.7614237-2.2385763 5-5 5h3c2.7614237 0 5-2.2385763 5-5v-12c0-2.7614237-2.2385763-5-5-5z" fill="#f47c00"></path><path id="Shape" d="m19 52h16v2c0 2.209139-1.790861 4-4 4h-8c-2.209139 0-4-1.790861-4-4z" fill="#607d8a"></path><path id="Shape" d="m32 52v2c0 2.209139-1.790861 4-4 4h3c2.209139 0 4-1.790861 4-4v-2z" fill="#37474f"></path><path id="Shape" d="m14 34v14c0 1.6568542-1.3431458 3-3 3-1.65685425 0-3-1.3431458-3-3v-8c0-3.3137085 2.6862915-6 6-6z" fill="#ffdb00"></path><path id="Shape" d="m43 34c1.6568542 0 3 1.3431458 3 3v14c-3.3137085 0-6-2.6862915-6-6v-8c0-1.6568542 1.3431458-3 3-3z" fill="#ffdb00" transform="matrix(-1 0 0 -1 86 85)"></path><path id="Shape" d="m40 34v.809c1.8560205 1.0696676 2.99981 3.0488047 3 5.191v8c-.0023458 1.0674872-.574188 2.0525807-1.5 2.584.4540847.2696489.9718941.4132547 1.5.416 1.6568542 0 3-1.3431458 3-3v-8c0-3.3137085-2.6862915-6-6-6z" fill="#fdc008"></path><path id="Shape" d="m40 36v11c0 2.7614237-2.2385763 5-5 5h-16c-2.7614237 0-5-2.2385763-5-5v-11s4 2 13 2 13-2 13-2z" fill="#ff5722"></path><path id="Shape" d="m37 36.969v10.031c0 2.7614237-2.2385763 5-5 5h3c2.7614237 0 5-2.2385763 5-5v-11c-.9651085.4224338-1.9701331.7470567-3 .969z" fill="#d74315"></path></g><g id="Icons_copy" fill="#000"><path id="Shape" d="m21 14c-2.209139 0-4 1.790861-4 4s1.790861 4 4 4 4-1.790861 4-4-1.790861-4-4-4zm0 6c-1.1045695 0-2-.8954305-2-2s.8954305-2 2-2 2 .8954305 2 2-.8954305 2-2 2z"></path><path id="Shape" d="m4 21c1.26678543-.0052514 2.39374545-.8056491 2.816-2h1.184c.00542964 2.9246159 2.1166966 5.4201335 5 5.91v.09c.0038653 2.7656998 1.6344213 5.2702996 4.162 6.393-.8362134.6986671-1.4667062 1.6115682-1.824 2.641-3.5905719.3448527-6.33290464 3.3589092-6.338 6.966v8c-.00653542 1.7015727 1.0683343 3.2194729 2.675534 3.7783124 1.6071998.5588395 3.3919172.0352464 4.442466-1.3033124.920874 1.2933054 2.3168027 2.1689073 3.882 2.435v1.09c.0033061 2.7600532 2.2399468 4.9966939 5 5h8c2.7600532-.0033061 4.9966939-2.2399468 5-5v-1.09c1.5651973-.2660927 2.961126-1.1416946 3.882-2.435 1.0505488 1.3385588 2.8352662 1.8621519 4.442466 1.3033124 1.6071997-.5588395 2.6820694-2.0767397 2.675534-3.7783124v-8c-.0050954-3.6070908-2.7474281-6.6211473-6.338-6.966-.3572938-1.0294318-.9877866-1.9423329-1.824-2.641 2.5275787-1.1227004 4.1581347-3.6273002 4.162-6.393v-.09c2.8833034-.4898665 4.9945704-2.9853841 5-5.91h1.184c.4870363 1.3775467 1.8956662 2.2038721 3.3357331 1.9567957 1.4400668-.2470764 2.492694-1.4956868 2.492694-2.9567957s-1.0526272-2.7097193-2.492694-2.9567957c-1.4400669-.2470764-2.8486968.579249-3.3357331 1.9567957h-1.184c-.0054296-2.9246159-2.1166966-5.4201335-5-5.91v-.09c-.0071635-6.07216255-4.9278374-10.9928365-11-11h-10c-6.0721626.0071635-10.9928365 4.92783745-11 11v.09c-2.8833034.4898665-4.99457036 2.9853841-5 5.91h-1.184c-.51101905-1.4345815-2.01721251-2.2572889-3.50043016-1.9119918-1.48321764.3452971-2.47117824 1.7486502-2.29604439 3.2614267s1.4575966 2.6532831 2.98047455 2.6505651zm50-4c.5522847 0 1 .4477153 1 1s-.4477153 1-1 1-1-.4477153-1-1 .4477153-1 1-1zm-11 4c0 1.6568542-1.3431458 3-3 3h-22c-1.6568542 0-3-1.3431458-3-3v-6c0-1.6568542 1.3431458-3 3-3h22c1.6568542 0 3 1.3431458 3 3zm-28 28c0 1.1045695-.8954305 2-2 2s-2-.8954305-2-2v-8c.0026123-2.3752386 1.6733709-4.421918 4-4.9zm2-1v-9.55c1.6319486.5097101 3.3048124.8777401 5 1.1v12.45h-1c-2.209139 0-4-1.790861-4-4zm7 4v-12.225c1.465.137 3.121.225 5 .225s3.535-.088 5-.225v12.225zm12 3c0 1.6568542-1.3431458 3-3 3h-8c-1.6568542 0-3-1.3431458-3-3v-1h14zm1-3h-1v-12.454c1.6951876-.2222599 3.3680514-.5902899 5-1.1v9.554c0 2.209139-1.790861 4-4 4zm10-11v8c0 1.1045695-.8954305 2-2 2s-2-.8954305-2-2v-12.9c2.3266291.478082 3.9973877 2.5247614 4 4.9zm-6-4.67c-1.347.5-5.212 1.67-12 1.67s-10.652-1.169-12-1.67v-.33c0-2.209139 1.790861-4 4-4h16c2.209139 0 4 1.790861 4 4zm-3-6.33h-18c-2.7600532-.0033061-4.9966939-2.2399468-5-5v-.026c.8603889.6618067 1.9145307 1.0223232 3 1.026h22c1.0854693-.0036768 2.1396111-.3641933 3-1.026v.026c-.0033061 2.7600532-2.2399468 4.9966939-5 5zm10-13v2c-.001755 1.823396-1.234945 3.4154443-3 3.873v-9.746c1.765055.4575557 2.998245 2.049604 3 3.873zm-24-15h10c4.9682782.00551113 8.9944889 4.03172183 9 9v.026c-.8603889-.6618067-1.9145307-1.0223232-3-1.026h-22c-1.0854693.0036768-2.1396111.3641933-3 1.026v-.026c.0055111-4.96827817 4.0317218-8.99448887 9-9zm-14 15c.001755-1.823396 1.234945-3.4154443 3-3.873v9.746c-1.765055-.4575557-2.998245-2.049604-3-3.873zm-6 0c.55228475 0 1 .4477153 1 1s-.44771525 1-1 1-1-.4477153-1-1 .44771525-1 1-1z"></path><path id="Shape" d="m37 14c-2.209139 0-4 1.790861-4 4s1.790861 4 4 4 4-1.790861 4-4-1.790861-4-4-4zm0 6c-1.1045695 0-2-.8954305-2-2s.8954305-2 2-2 2 .8954305 2 2-.8954305 2-2 2z"></path></g></g></g></svg>